<svg t="1703732149826" class="icon" viewBox="0 0 1024 1024" version="1.1" xmlns="http://www.w3.org/2000/svg" p-id="10780" width="128" height="128"><path d="M307.882667 136.533333c45.738667 0 88.814933 17.851733 121.105066 50.176a170.325333 170.325333 0 0 1 50.141867 121.070934v171.4176H307.882667a170.222933 170.222933 0 0 1-121.1392-50.176A170.461867 170.461867 0 0 1 136.533333 307.882667c0-45.738667 17.851733-88.7808 50.176-121.105067A170.5984 170.5984 0 0 1 307.882667 136.533333z m4.096 107.588267L247.978667 308.087467l130.184533 130.184533a17.134933 17.134933 0 0 0 14.813867 9.1136h55.978666v-54.818133a20.7872 20.7872 0 0 0-6.8608-15.9744l-130.184533-132.437334zM238.830933 205.312l-31.982933 31.982933a22.869333 22.869333 0 0 0 0 31.9488l16.008533 16.008534 63.931734-63.965867-15.9744-15.9744a22.869333 22.869333 0 0 0-31.982934 0zM714.820267 479.232h-171.349334V307.882667c0-45.806933 17.885867-88.814933 50.176-121.1392A170.2912 170.2912 0 0 1 714.820267 136.533333c45.7728 0 88.814933 17.851733 121.105066 50.176a170.154667 170.154667 0 0 1 50.176 121.070934 170.325333 170.325333 0 0 1-50.176 121.1392 169.710933 169.710933 0 0 1-121.105066 50.2784z m-246.272 74.922667H307.882667a160.631467 160.631467 0 0 0 0 321.262933c88.746667 0 160.5632-71.918933 160.5632-160.597333v-160.6656h0.1024z" fill="#85C2FF" p-id="10781"></path><path d="M307.882667 886.1696a170.222933 170.222933 0 0 1-121.1392-50.176A170.530133 170.530133 0 0 1 136.533333 714.8544c0-45.738667 17.851733-88.814933 50.176-121.105067a170.154667 170.154667 0 0 1 121.070934-50.176h171.349333v171.349334a170.222933 170.222933 0 0 1-50.176 121.1392 170.222933 170.222933 0 0 1-121.070933 50.141866z m406.9376 0a170.222933 170.222933 0 0 1-121.105067-50.176 170.154667 170.154667 0 0 1-50.176-121.105067v-171.383466h171.349333c45.806933 0 88.814933 17.851733 121.1392 50.141866a170.154667 170.154667 0 0 1 50.141867 121.105067 170.222933 170.222933 0 0 1-50.176 121.105067 170.325333 170.325333 0 0 1-121.173333 50.312533z" fill="#85C2FF" p-id="10782"></path><path d="M821.8624 318.600533h-21.4016a96.529067 96.529067 0 0 0-96.3584-96.3584v-21.4016a117.896533 117.896533 0 0 1 117.76 117.76z" fill="#FFFFFF" p-id="10783"></path><path d="M811.281067 329.557333c-0.648533 5.358933-1.8432 10.581333-3.413334 15.633067" fill="#000000" p-id="10784"></path><path d="M818.244267 347.8528l-20.753067-5.3248a100.010667 100.010667 0 0 0 2.525867-14.062933l21.333333 2.1504c-0.682667 5.8368-1.706667 11.605333-3.106133 17.237333z" fill="#FFFFFF" p-id="10785"></path></svg>