<svg t="1703780750979" class="icon" viewBox="0 0 1024 1024" version="1.1" xmlns="http://www.w3.org/2000/svg" p-id="15847" width="128" height="128"><path d="M914.758621 999.724138c-11.034483 0-22.068966-4.413793-30.896552-13.241379 0 0-108.137931-105.931034-183.172414-178.758621-17.655172-17.655172-17.655172-44.137931 0-61.793104 17.655172-17.655172 44.137931-17.655172 61.793104 0 72.827586 72.827586 180.965517 176.551724 180.965517 176.551725 17.655172 17.655172 17.655172 44.137931 2.206896 61.793103-8.827586 11.034483-19.862069 15.448276-30.896551 15.448276z" fill="#DE8B12" p-id="15848"></path><path d="M482.206897 909.241379c-242.758621 0-441.37931-198.62069-441.379311-441.37931s198.62069-441.37931 441.379311-441.37931 441.37931 198.62069 441.37931 441.37931-198.62069 441.37931-441.37931 441.37931z m0-794.482758c-194.206897 0-353.103448 158.896552-353.103449 353.103448s158.896552 353.103448 353.103449 353.103448 353.103448-158.896552 353.103448-353.103448-158.896552-353.103448-353.103448-353.103448z" fill="#4282C4" p-id="15849"></path></svg>